<svg width="2016" height="403" viewBox="0 0 2016 403" fill="none" xmlns="http://www.w3.org/2000/svg">
<g filter="url(#filter0_d_6_13)">
<path fill-rule="evenodd" clip-rule="evenodd" d="M4 62.9223L120.022 136.332C234.312 209.741 466.355 356.56 696.667 388.021C926.978 419.482 1159.02 335.586 1389.33 314.612C1619.65 293.638 1851.69 335.586 1965.98 356.56L2082 377.534V0H1965.98C1851.69 0 1619.65 0 1389.33 0C1159.02 0 926.978 0 696.667 0C466.355 0 234.312 0 120.022 0H4V62.9223Z" fill="url(#paint0_linear_6_13)" shape-rendering="crispEdges"/>
</g>
<g filter="url(#filter1_d_6_13)">
<path fill-rule="evenodd" clip-rule="evenodd" d="M4 57.0283L120.022 123.561C234.312 190.094 466.355 323.161 696.667 351.675C926.978 380.189 1159.02 304.151 1389.33 285.142C1619.65 266.132 1851.69 304.151 1965.98 323.161L2082 342.17V0H1965.98C1851.69 0 1619.65 0 1389.33 0C1159.02 0 926.978 0 696.667 0C466.355 0 234.312 0 120.022 0H4V57.0283Z" fill="url(#paint1_linear_6_13)" shape-rendering="crispEdges"/>
</g>
<defs>
<filter id="filter0_d_6_13" x="0" y="0" width="2016" height="403" filterUnits="userSpaceOnUse" color-interpolation-filters="sRGB">
<feFlood flood-opacity="0" result="BackgroundImageFix"/>
<feColorMatrix in="SourceAlpha" type="matrix" values="0 0 0 0 0 0 0 0 0 0 0 0 0 0 0 0 0 0 127 0" result="hardAlpha"/>
<feOffset dy="4"/>
<feGaussianBlur stdDeviation="2"/>
<feComposite in2="hardAlpha" operator="out"/>
<feColorMatrix type="matrix" values="0 0 0 0 0 0 0 0 0 0 0 0 0 0 0 0 0 0 0.25 0"/>
<feBlend mode="normal" in2="BackgroundImageFix" result="effect1_dropShadow_6_13"/>
<feBlend mode="normal" in="SourceGraphic" in2="effect1_dropShadow_6_13" result="shape"/>
</filter>
<filter id="filter1_d_6_13" x="0" y="0" width="2016" height="366" filterUnits="userSpaceOnUse" color-interpolation-filters="sRGB">
<feFlood flood-opacity="0" result="BackgroundImageFix"/>
<feColorMatrix in="SourceAlpha" type="matrix" values="0 0 0 0 0 0 0 0 0 0 0 0 0 0 0 0 0 0 127 0" result="hardAlpha"/>
<feOffset dy="4"/>
<feGaussianBlur stdDeviation="2"/>
<feComposite in2="hardAlpha" operator="out"/>
<feColorMatrix type="matrix" values="0 0 0 0 0 0 0 0 0 0 0 0 0 0 0 0 0 0 0.25 0"/>
<feBlend mode="normal" in2="BackgroundImageFix" result="effect1_dropShadow_6_13"/>
<feBlend mode="normal" in="SourceGraphic" in2="effect1_dropShadow_6_13" result="shape"/>
</filter>
<linearGradient id="paint0_linear_6_13" x1="-7.5" y1="43.5" x2="2082" y2="110.5" gradientUnits="userSpaceOnUse">
<stop stop-color="#E1D2F3" stop-opacity="0.72"/>
<stop offset="1" stop-color="#E1D2F3" stop-opacity="0.47"/>
</linearGradient>
<linearGradient id="paint1_linear_6_13" x1="22.5" y1="53.0001" x2="2082" y2="76" gradientUnits="userSpaceOnUse">
<stop offset="0.520942" stop-color="#6A31C8" stop-opacity="0.83"/>
<stop offset="0.734494" stop-color="#3A59C8"/>
</linearGradient>
</defs>
</svg>
